<svg id="Livello_1" data-name="Livello 1" xmlns="http://www.w3.org/2000/svg" viewBox="0 0 841.89 595.28"><defs><style>.cls-1{fill:#1d1d1b}</style></defs><path class="cls-1" d="M233.71 322.08V301c0-3.56-1.71-5.27-5.27-5.27-2.85 0-5.42 1.07-5.42 5.56v20.81h-14.67v-50.3H223v17.1c1.14-1.5 4.28-5.27 11.76-5.27 6 0 13.68 2.49 13.68 13.61v24.87h-14.73zm41.54 1.42c-11.47 0-21-6.41-21-19.59 0-11.12 7.2-20.31 21.52-20.31 14.82 0 21.52 9.26 21.52 20.09-.02 10.62-7.22 19.81-22.04 19.81zm.36-29.57c-4.84 0-6.77 4.13-6.77 9.55s1.71 9.76 6.84 9.76c3.56 0 6.77-2 6.77-9.9 0-7.2-2.92-9.41-6.84-9.41zm50.62-7.93v8h-6.56v14.18c0 1.5.14 3.85 4 3.85a10.3 10.3 0 0 0 2.64-.28v10a73 73 0 0 1-9.26.78c-10.33 0-12-5.41-12-10.69V294h-5v-8h5.2v-11.59h14.68V286h6.34zm29.16 0v8h-6.56v14.18c0 1.5.14 3.85 4 3.85a10.31 10.31 0 0 0 2.64-.28v10a73 73 0 0 1-9.26.78c-10.33 0-12-5.41-12-10.69V294h-5v-8h5.2v-11.59H349V286h6.34zm24.34 37.5c-11.47 0-21-6.41-21-19.59 0-11.12 7.2-20.31 21.52-20.31 14.82 0 21.52 9.26 21.52 20.09-.02 10.62-7.22 19.81-22.04 19.81zm.36-29.57c-4.84 0-6.77 4.13-6.77 9.55s1.71 9.76 6.84 9.76c3.56 0 6.77-2 6.77-9.9 0-7.2-2.93-9.41-6.84-9.41zm52.42 2.28c-1.42-.85-5-3.49-9.48-3.49-1.5 0-3.13.43-3.13 1.85s.85 1.71 5.91 2.85l5.27 1.21c6.63 1.5 10.4 5.34 10.4 11.12 0 8.27-7.34 13.75-17.53 13.75a29.89 29.89 0 0 1-19.81-7.41l8.27-7.48a16.43 16.43 0 0 0 11.4 5c1.92 0 3.85-.64 3.85-2.42 0-1.21-.93-1.78-3.71-2.28-11.19-2-17.88-4.27-17.88-12.61 0-6.13 5.06-12.61 16.74-12.61 5.92 0 13 1.43 17.6 5.34zM470.56 286v8H464v14.18c0 1.5.14 3.85 4 3.85a10.3 10.3 0 0 0 2.64-.28v10a73 73 0 0 1-9.26.78c-10.33 0-12-5.41-12-10.69V294h-5v-8h5.2v-11.59h14.68V286h6.34zM502 322.08v-5.42c-1.28 3.06-5.13 6.34-12.18 6.34s-14-3.21-14-14.82v-23h14.75v20.38c0 1.85.14 5.7 5.34 5.7s5.27-4.13 5.27-6.06v-20H516v36.91h-14zm46 0v-2.64c-1.92 2.71-6.06 3.56-9.26 3.56-10 0-16.6-7.48-16.6-20.66 0-11 6.7-18.24 16.17-18.24a13.22 13.22 0 0 1 9.34 3.63v-16h14.55v50.3H548zm-5.77-27.5c-3.14 0-5.63 2.42-5.63 9 0 3.85 1 8.83 5.77 8.83 4.28 0 5.63-4.13 5.63-8.91 0-6.64-2.76-8.92-5.82-8.92zm27.62-13.04v-9.76h14.68v9.76h-14.68zm0 40.54v-36.91h14.68v36.91h-14.68zm41.68 1.42c-11.47 0-21-6.41-21-19.59 0-11.12 7.2-20.31 21.52-20.31 14.82 0 21.52 9.26 21.52 20.09-.03 10.62-7.22 19.81-22.04 19.81zm.36-29.57c-4.84 0-6.77 4.13-6.77 9.55s1.71 9.76 6.84 9.76c3.56 0 6.77-2 6.77-9.9-.01-7.2-2.93-9.41-6.85-9.41z"/></svg>